<svg version="1.1" id="Layer_1" xmlns="http://www.w3.org/2000/svg" xmlns:xlink="http://www.w3.org/1999/xlink" x="0px" y="0px"
	 width="100%" viewBox="0 0 163 163" enable-background="new 0 0 163 163" xml:space="preserve">
<path fill="none" opacity="1.000000" stroke="none" 
	d="
M90.000000,164.000000 
	C60.000004,164.000000 30.500008,164.000000 1.000008,164.000000 
	C1.000005,109.666679 1.000005,55.333355 1.000003,1.000023 
	C55.333317,1.000015 109.666634,1.000015 163.999969,1.000008 
	C163.999969,55.333309 163.999969,109.666618 163.999985,163.999969 
	C139.500000,164.000000 115.000000,164.000000 90.000000,164.000000 
M73.051819,45.897476 
	C72.356316,45.900173 71.660812,45.902870 70.295265,45.612236 
	C68.859550,45.512859 67.423836,45.413479 65.508484,45.136673 
	C65.416870,45.421730 65.325249,45.706787 64.732727,46.607403 
	C64.509735,48.404186 64.286743,50.200974 63.570908,52.440910 
	C63.492443,53.292583 63.413979,54.144253 63.092201,55.545708 
	C62.717873,56.003502 62.343540,56.461292 61.402527,56.811089 
	C61.021282,56.838421 60.640041,56.865753 60.003620,56.435120 
	C59.676323,56.385311 59.349030,56.335503 58.221645,56.066006 
	C56.856030,55.912792 55.490414,55.759579 53.595985,55.219769 
	C52.726139,55.224659 51.856289,55.229549 50.183708,54.968548 
	C41.789509,53.681568 33.395313,52.394592 25.188456,51.136337 
	C25.592575,47.969555 25.513790,45.207737 26.349693,42.758038 
	C27.962729,38.030888 25.522497,37.200787 21.760283,37.199894 
	C20.455294,37.199585 19.150305,37.199848 17.488232,37.199848 
	C17.262905,38.848068 17.068748,40.268280 16.103342,42.111980 
	C14.684456,42.063988 13.160682,42.334721 11.866187,41.908730 
	C7.849874,40.587044 6.343783,41.774303 5.954354,46.076683 
	C5.470683,51.420235 4.269528,56.722160 3.059238,61.968464 
	C2.245954,65.493851 3.122751,67.292160 6.883115,67.355392 
	C8.186346,67.377304 9.487059,67.549011 10.834053,68.050713 
	C10.985453,68.416679 11.136852,68.782639 11.144859,70.010735 
	C10.707151,74.701431 14.097764,74.226334 17.762842,74.738480 
	C18.899542,74.034874 20.683693,73.564163 21.038023,72.579132 
	C21.773369,70.534874 21.749838,68.217651 22.532230,65.686699 
	C22.686222,65.119270 22.840214,64.551842 23.822262,63.948135 
	C29.127201,63.256939 28.861883,68.170296 28.717875,70.410797 
	C28.212160,78.278725 32.107151,84.429970 35.174046,91.607849 
	C35.621693,92.308441 36.069340,93.009033 36.907654,94.164230 
	C37.634323,95.097855 38.360992,96.031479 39.175713,97.564690 
	C39.816219,98.285072 40.456726,99.005455 41.396957,100.319176 
	C43.132511,101.945320 44.868065,103.571465 46.819550,105.805847 
	C47.553379,106.187050 48.287205,106.568245 49.304005,107.573692 
	C69.654037,122.296425 94.105034,122.891693 114.696266,109.033752 
	C116.219070,107.719391 117.741875,106.405029 119.958664,104.762840 
	C124.098709,99.345848 129.247330,94.426598 132.207932,88.427536 
	C146.677811,59.107166 132.495941,25.855894 104.364792,13.440483 
	C83.918106,4.416536 57.902035,9.802401 43.289143,26.068197 
	C41.436306,28.364834 39.583473,30.661470 37.202816,33.259670 
	C36.801834,34.172607 36.400852,35.085548 35.411057,36.234257 
	C34.968704,37.165783 34.526356,38.097309 33.581085,39.454842 
	C33.380997,40.287228 33.180912,41.119614 32.336384,42.139061 
	C32.547958,42.831852 32.759529,43.524639 33.383469,44.738194 
	C34.263611,44.797878 35.143757,44.857563 36.438339,45.418438 
	C37.301643,45.479408 38.164948,45.540379 39.828720,45.920891 
	C43.888420,46.551895 47.995678,46.973095 51.993000,47.879265 
	C55.281471,48.624748 57.336872,47.803791 59.663342,45.212734 
	C75.128998,27.988174 98.518974,30.665323 109.712807,50.748535 
	C114.335648,59.042530 113.623215,74.835022 107.719154,81.598694 
	C99.404617,91.123802 89.105957,95.901085 76.122383,93.180489 
	C69.046631,91.697823 62.557629,87.279259 60.199722,81.659721 
	C64.409576,82.687881 69.183937,84.995064 70.571861,77.706154 
	C71.051559,77.684143 71.531265,77.662132 72.727974,77.981483 
	C75.333488,78.943855 78.366997,80.489922 79.057526,76.068855 
	C80.200027,68.753944 80.960205,61.379311 81.834274,53.552284 
	C81.656517,53.174515 81.388680,53.093105 80.212463,52.978653 
	C78.482994,52.961109 76.753532,52.943562 74.909073,52.448288 
	C74.722214,52.142197 74.449654,51.981190 73.932785,51.428207 
	C73.635330,50.985317 73.337868,50.542427 73.595299,49.873363 
	C73.683441,48.761158 73.771584,47.648949 73.665680,46.303341 
	C73.665680,46.303341 73.370796,46.231392 73.051819,45.897476 
M65.860893,135.265625 
	C64.263069,138.626846 62.665241,141.988052 60.580666,146.373184 
	C58.666641,141.625854 57.212524,137.995941 55.740551,134.373291 
	C52.959671,127.529312 52.955402,127.531044 44.797955,128.547302 
	C44.797955,138.231598 44.797955,147.984589 44.797955,157.789307 
	C47.674881,157.789307 49.775425,157.789307 51.862827,157.789307 
	C52.030689,155.735062 52.180485,153.901855 52.330284,152.068634 
	C55.256504,154.411240 55.840065,158.150681 60.846767,158.289780 
	C66.629128,158.450424 65.776855,153.169418 69.009918,150.457352 
	C69.009918,153.390121 69.009918,155.487671 69.009918,157.788940 
	C71.733856,157.788940 74.145752,157.788940 76.998894,157.788940 
	C76.998894,152.697006 76.998901,147.745178 76.998901,142.793365 
	C76.998901,137.917511 76.998894,133.041656 76.998894,128.101410 
	C69.907112,126.675850 69.907112,126.675850 65.860893,135.265625 
M111.724800,131.166153 
	C111.761894,126.267258 108.091423,127.421242 105.372032,127.466225 
	C101.797997,127.525345 103.101822,130.439957 103.018135,132.314499 
	C102.864883,135.747116 102.974495,139.191498 102.974495,144.028107 
	C101.385475,142.220459 100.597313,141.396011 99.890221,140.507065 
	C96.722252,136.524353 93.774399,132.343277 90.350861,128.595779 
	C88.270706,126.318779 81.272011,127.536995 81.236298,129.880341 
	C81.095184,139.139999 81.178375,148.403076 81.178375,157.803299 
	C84.284454,157.803299 86.718079,157.803299 89.904793,157.803299 
	C89.904793,152.468750 89.904793,147.336548 89.904793,140.977707 
	C94.126656,146.649796 97.549294,151.089752 100.793320,155.656570 
	C103.390800,159.313202 107.096909,158.084305 110.321213,157.612335 
	C111.077278,157.501678 111.706001,153.996826 111.754730,152.037643 
	C111.920341,145.380051 111.800194,138.715347 111.724800,131.166153 
M41.064514,139.565292 
	C40.381851,137.917740 39.939949,136.110992 38.974220,134.650620 
	C35.103558,128.797379 28.760386,126.338402 21.940136,127.831558 
	C16.133213,129.102859 10.601934,134.468063 9.861954,139.547073 
	C8.768793,147.050217 11.423645,153.079926 17.842756,156.642838 
	C22.858393,159.426773 28.193642,159.518784 33.216717,156.646652 
	C39.543785,153.028931 42.050564,147.254883 41.064514,139.565292 
M138.805939,153.891937 
	C142.008041,154.221222 147.026215,153.421494 148.066467,155.094772 
	C151.005508,159.822266 154.367081,157.507004 158.284225,157.727280 
	C154.643524,148.615387 150.923965,140.198837 147.956482,131.524979 
	C146.326904,126.761703 142.777390,127.713837 139.702225,127.855484 
	C138.451904,127.913071 137.161972,130.182510 136.164642,131.634186 
	C135.439026,132.690338 135.189926,134.066864 134.683731,135.281967 
	C131.638199,142.592697 128.579742,149.898056 125.325325,157.684418 
	C129.776489,157.834839 133.776291,159.666458 135.628738,154.464157 
	C135.775482,154.052048 137.118698,154.065979 138.805939,153.891937 
M123.016792,146.036728 
	C123.016792,139.946213 123.016792,133.855713 123.016792,127.762344 
	C120.253616,127.762344 118.128731,127.762344 115.581963,127.762344 
	C115.581963,137.970200 115.581963,147.805115 115.581963,157.594498 
	C123.706001,158.537750 123.718597,158.537231 123.412399,151.119553 
	C123.354446,149.715836 123.152321,148.318054 123.016792,146.036728 
z"/>
<path fill="#FCFCFC" opacity="1.000000" stroke="none" 
	d="
M46.603622,105.197609 
	C44.868065,103.571465 43.132511,101.945320 41.252586,99.692215 
	C40.434700,98.365204 39.761181,97.665154 39.087662,96.965103 
	C38.360992,96.031479 37.634323,95.097855 36.828072,93.587578 
	C36.234158,92.329765 35.719822,91.648598 35.205486,90.967438 
	C32.107151,84.429970 28.212160,78.278725 28.717875,70.410797 
	C28.861883,68.170296 29.127201,63.256939 23.285522,63.667938 
	C22.114750,62.710838 21.480719,62.033936 20.846687,61.357037 
	C20.489891,61.608135 20.133095,61.859238 19.776300,62.110336 
	C20.530296,63.411106 21.284292,64.711876 22.038286,66.012642 
	C21.749838,68.217651 21.773369,70.534874 21.038023,72.579132 
	C20.683693,73.564163 18.899542,74.034874 17.324514,74.251205 
	C15.579115,72.164085 14.272043,70.564232 12.969158,68.530869 
	C14.325426,60.041130 15.677507,51.984901 17.019850,43.554241 
	C16.964939,42.682701 16.919765,42.185596 16.874594,41.688488 
	C17.068748,40.268280 17.262905,38.848068 17.488232,37.199848 
	C19.150305,37.199848 20.455294,37.199585 21.760283,37.199894 
	C25.522497,37.200787 27.962729,38.030888 26.349693,42.758038 
	C25.513790,45.207737 25.592575,47.969555 25.188456,51.136337 
	C33.395313,52.394592 41.789509,53.681568 50.656960,55.427101 
	C52.128410,55.792561 53.126602,55.699463 54.124798,55.606365 
	C55.490414,55.759579 56.856030,55.912792 58.776505,56.365227 
	C59.606724,56.877651 59.915867,56.953861 60.258797,56.893082 
	C60.640041,56.865753 61.021282,56.838421 61.863518,57.117672 
	C62.916481,56.645641 63.508450,55.867027 64.428604,55.019875 
	C65.366539,54.290066 65.976273,53.628799 66.586014,52.967529 
	C65.745255,52.644272 64.904503,52.321014 64.063744,51.997757 
	C64.286743,50.200974 64.509735,48.404186 65.157318,46.249714 
	C65.805130,45.761108 65.940529,45.568466 65.988121,45.314098 
	C67.423836,45.413479 68.859550,45.512859 70.858414,46.027580 
	C72.071304,46.372417 72.721054,46.301907 73.370796,46.231392 
	C73.370796,46.231392 73.665680,46.303341 73.528427,46.823021 
	C73.274254,48.261650 73.157333,49.180592 73.040413,50.099537 
	C73.337868,50.542427 73.635330,50.985317 73.710869,51.844612 
	C73.323936,53.510979 73.158920,54.760944 72.994286,56.338028 
	C72.988350,57.101246 72.982033,57.537346 72.632896,58.038475 
	C71.867676,59.081482 71.445282,60.059467 71.021179,61.468178 
	C70.768372,63.819668 70.407509,65.733765 70.290245,67.662659 
	C70.081490,71.096764 70.020111,74.539833 69.897095,77.979149 
	C69.183937,84.995064 64.409576,82.687881 60.199722,81.659721 
	C62.557629,87.279259 69.046631,91.697823 76.122383,93.180489 
	C89.105957,95.901085 99.404617,91.123802 107.719154,81.598694 
	C113.623215,74.835022 114.335648,59.042530 109.712807,50.748535 
	C98.518974,30.665323 75.128998,27.988174 59.663342,45.212734 
	C57.336872,47.803791 55.281471,48.624748 51.993000,47.879265 
	C47.995678,46.973095 43.888420,46.551895 39.367851,45.468353 
	C37.945957,44.982964 36.984928,44.950108 36.023899,44.917252 
	C35.143757,44.857563 34.263611,44.797878 33.185005,44.099762 
	C32.984638,42.958221 32.982731,42.455109 32.980827,41.952000 
	C33.180912,41.119614 33.380997,40.287228 34.169556,39.177780 
	C35.171974,37.933311 35.585918,36.965897 35.999866,35.998486 
	C36.400852,35.085548 36.801834,34.172607 37.878052,33.121819 
	C44.355724,32.321213 45.514702,30.788984 43.937920,25.865208 
	C57.902035,9.802401 83.918106,4.416536 104.364792,13.440483 
	C132.495941,25.855894 146.677811,59.107166 132.207932,88.427536 
	C129.247330,94.426598 124.098709,99.345848 119.556183,104.539474 
	C118.211220,104.045784 116.533989,103.387138 116.439888,103.565186 
	C115.497627,105.348038 114.815758,107.268517 114.060516,109.150215 
	C94.105034,122.891693 69.654037,122.296425 49.111130,106.914803 
	C48.146709,105.903145 47.375168,105.550377 46.603622,105.197609 
M53.874027,70.778893 
	C55.213989,74.199829 56.553951,77.620766 57.893913,81.041702 
	C58.214172,80.955788 58.534431,80.869873 58.854691,80.783966 
	C59.376049,77.339264 59.897408,73.894562 60.484379,70.016357 
	C58.072788,69.616699 56.026485,69.277565 53.694378,68.493607 
	C53.254551,68.672783 52.814728,68.851959 52.374901,69.031136 
	C52.816505,69.362061 53.258106,69.692978 53.874027,70.778893 
M21.410034,59.483414 
	C21.410034,59.483414 21.521883,59.416885 21.410034,59.483414 
M39.409904,93.478348 
	C39.409904,93.478348 39.517136,93.414093 39.409904,93.478348 
M19.517630,58.417583 
	C19.517630,58.417583 19.579632,58.522671 19.517630,58.417583 
M79.417068,31.485022 
	C79.417068,31.485022 79.520950,31.424700 79.417068,31.485022 
z"/>
<path fill="#F5F4F5" opacity="1.000000" stroke="none" 
	d="
M65.932961,134.893372 
	C69.907112,126.675850 69.907112,126.675850 76.998894,128.101410 
	C76.998894,133.041656 76.998901,137.917511 76.998901,142.793365 
	C76.998901,147.745178 76.998894,152.697006 76.998894,157.788940 
	C74.145752,157.788940 71.733856,157.788940 69.009918,157.788940 
	C69.009918,155.487671 69.009918,153.390121 69.009918,150.457352 
	C65.776855,153.169418 66.629128,158.450424 60.846767,158.289780 
	C55.840065,158.150681 55.256504,154.411240 52.330284,152.068634 
	C52.180485,153.901855 52.030689,155.735062 51.862827,157.789307 
	C49.775425,157.789307 47.674881,157.789307 44.797955,157.789307 
	C44.797955,147.984589 44.797955,138.231598 44.797955,128.547302 
	C52.955402,127.531044 52.959671,127.529312 55.740551,134.373291 
	C57.212524,137.995941 58.666641,141.625854 60.580666,146.373184 
	C62.665241,141.988052 64.263069,138.626846 65.932961,134.893372 
z"/>
<path fill="#EEEEEE" opacity="1.000000" stroke="none" 
	d="
M111.756981,131.609756 
	C111.800194,138.715347 111.920341,145.380051 111.754730,152.037643 
	C111.706001,153.996826 111.077278,157.501678 110.321213,157.612335 
	C107.096909,158.084305 103.390800,159.313202 100.793320,155.656570 
	C97.549294,151.089752 94.126656,146.649796 89.904793,140.977707 
	C89.904793,147.336548 89.904793,152.468750 89.904793,157.803299 
	C86.718079,157.803299 84.284454,157.803299 81.178375,157.803299 
	C81.178375,148.403076 81.095184,139.139999 81.236298,129.880341 
	C81.272011,127.536995 88.270706,126.318779 90.350861,128.595779 
	C93.774399,132.343277 96.722252,136.524353 99.890221,140.507065 
	C100.597313,141.396011 101.385475,142.220459 102.974495,144.028107 
	C102.974495,139.191498 102.864883,135.747116 103.018135,132.314499 
	C103.101822,130.439957 101.797997,127.525345 105.372032,127.466225 
	C108.091423,127.421242 111.761894,126.267258 111.756981,131.609756 
z"/>
<path fill="#EDEDED" opacity="1.000000" stroke="none" 
	d="
M41.366104,139.835205 
	C42.050564,147.254883 39.543785,153.028931 33.216717,156.646652 
	C28.193642,159.518784 22.858393,159.426773 17.842756,156.642838 
	C11.423645,153.079926 8.768793,147.050217 9.861954,139.547073 
	C10.601934,134.468063 16.133213,129.102859 21.940136,127.831558 
	C28.760386,126.338402 35.103558,128.797379 38.974220,134.650620 
	C39.939949,136.110992 40.381851,137.917740 41.366104,139.835205 
M21.266603,149.249512 
	C22.011765,149.590118 22.730961,150.013275 23.506521,150.257248 
	C27.122068,151.394638 30.200871,150.026413 31.872370,147.067856 
	C32.926464,145.202103 33.177425,142.219681 32.483055,140.183365 
	C31.424124,137.077942 28.673864,134.857559 25.094088,135.870911 
	C22.784208,136.524765 20.084036,137.796707 18.804651,139.651199 
	C16.587275,142.865280 18.021353,146.210388 21.266603,149.249512 
z"/>
<path fill="#F1F0F0" opacity="1.000000" stroke="none" 
	d="
M138.355896,153.886932 
	C137.118698,154.065979 135.775482,154.052048 135.628738,154.464157 
	C133.776291,159.666458 129.776489,157.834839 125.325325,157.684418 
	C128.579742,149.898056 131.638199,142.592697 134.683731,135.281967 
	C135.189926,134.066864 135.439026,132.690338 136.164642,131.634186 
	C137.161972,130.182510 138.451904,127.913071 139.702225,127.855484 
	C142.777390,127.713837 146.326904,126.761703 147.956482,131.524979 
	C150.923965,140.198837 154.643524,148.615387 158.284225,157.727280 
	C154.367081,157.507004 151.005508,159.822266 148.066467,155.094772 
	C147.026215,153.421494 142.008041,154.221222 138.355896,153.886932 
z"/>
<path fill="#F2F1F2" opacity="1.000000" stroke="none" 
	d="
M123.016762,146.477142 
	C123.152321,148.318054 123.354446,149.715836 123.412399,151.119553 
	C123.718597,158.537231 123.706001,158.537750 115.581963,157.594498 
	C115.581963,147.805115 115.581963,137.970200 115.581963,127.762344 
	C118.128731,127.762344 120.253616,127.762344 123.016792,127.762344 
	C123.016792,133.855713 123.016792,139.946213 123.016762,146.477142 
z"/>
<path fill="#F3F2F2" opacity="1.000000" stroke="none" 
	d="
M16.488968,41.900234 
	C16.919765,42.185596 16.964939,42.682701 16.642666,43.636299 
	C15.845243,44.903000 15.198524,45.668217 15.019498,46.530533 
	C13.559910,53.560863 12.187708,60.609337 10.788921,67.652290 
	C9.487059,67.549011 8.186346,67.377304 6.883115,67.355392 
	C3.122751,67.292160 2.245954,65.493851 3.059238,61.968464 
	C4.269528,56.722160 5.470683,51.420235 5.954354,46.076683 
	C6.343783,41.774303 7.849874,40.587044 11.866187,41.908730 
	C13.160682,42.334721 14.684456,42.063988 16.488968,41.900234 
z"/>
<path fill="#F4F2F3" opacity="1.000000" stroke="none" 
	d="
M72.975723,57.973450 
	C72.982033,57.537346 72.988350,57.101246 73.176880,56.073059 
	C73.914093,54.629326 74.469078,53.777672 75.024063,52.926018 
	C76.753532,52.943562 78.482994,52.961109 80.726051,53.303299 
	C81.417526,53.819500 81.631477,53.953465 81.881485,54.029842 
	C80.960205,61.379311 80.200027,68.753944 79.057526,76.068855 
	C78.366997,80.489922 75.333488,78.943855 72.227676,77.471848 
	C72.179688,71.626625 72.631981,66.291039 73.319092,60.766144 
	C73.361176,59.709042 73.168442,58.841248 72.975723,57.973450 
z"/>
<path fill="#DBD4D5" opacity="1.000000" stroke="none" 
	d="
M10.811487,67.851501 
	C12.187708,60.609337 13.559910,53.560863 15.019498,46.530533 
	C15.198524,45.668217 15.845243,44.903000 16.652405,44.010727 
	C15.677507,51.984901 14.325426,60.041130 12.551567,68.589661 
	C11.849277,69.104172 11.568764,69.126389 11.288252,69.148605 
	C11.136852,68.782639 10.985453,68.416679 10.811487,67.851501 
z"/>
<path fill="#CFCBCC" opacity="1.000000" stroke="none" 
	d="
M73.084282,60.955452 
	C72.631981,66.291039 72.179688,71.626625 71.869171,77.301163 
	C71.531265,77.662132 71.051559,77.684143 70.234482,77.842651 
	C70.020111,74.539833 70.081490,71.096764 70.290245,67.662659 
	C70.407509,65.733765 70.768372,63.819668 71.363571,61.444038 
	C72.166534,60.977928 72.625412,60.966690 73.084282,60.955452 
z"/>
<path fill="#EDEDED" opacity="1.000000" stroke="none" 
	d="
M43.613533,25.966702 
	C45.514702,30.788984 44.355724,32.321213 38.141964,32.971039 
	C39.583473,30.661470 41.436306,28.364834 43.613533,25.966702 
z"/>
<path fill="#F0EFEF" opacity="1.000000" stroke="none" 
	d="
M114.378387,109.091980 
	C114.815758,107.268517 115.497627,105.348038 116.439888,103.565186 
	C116.533989,103.387138 118.211220,104.045784 119.209198,104.703392 
	C117.741875,106.405029 116.219070,107.719391 114.378387,109.091980 
z"/>
<path fill="#F4F2F3" opacity="1.000000" stroke="none" 
	d="
M11.216556,69.579666 
	C11.568764,69.126389 11.849277,69.104172 12.547380,69.023163 
	C14.272043,70.564232 15.579115,72.164085 16.957518,74.067619 
	C14.097764,74.226334 10.707151,74.701431 11.216556,69.579666 
z"/>
<path fill="#F4F2F3" opacity="1.000000" stroke="none" 
	d="
M22.285259,65.849670 
	C21.284292,64.711876 20.530296,63.411106 19.776300,62.110336 
	C20.133095,61.859238 20.489891,61.608135 20.846687,61.357037 
	C21.480719,62.033936 22.114750,62.710838 22.871494,63.686077 
	C22.840214,64.551842 22.686222,65.119270 22.285259,65.849670 
z"/>
<path fill="#F4F2F3" opacity="1.000000" stroke="none" 
	d="
M63.817326,52.219334 
	C64.904503,52.321014 65.745255,52.644272 66.586014,52.967529 
	C65.976273,53.628799 65.366539,54.290066 64.238243,54.984924 
	C63.719692,55.018513 63.335514,54.995926 63.335518,54.995926 
	C63.413979,54.144253 63.492443,53.292583 63.817326,52.219334 
z"/>
<path fill="#F1F0EF" opacity="1.000000" stroke="none" 
	d="
M74.966568,52.687153 
	C74.469078,53.777672 73.914093,54.629326 73.176498,55.745941 
	C73.158920,54.760944 73.323936,53.510979 73.790161,52.113144 
	C74.449654,51.981190 74.722214,52.142197 74.966568,52.687153 
z"/>
<path fill="#F1F0EF" opacity="1.000000" stroke="none" 
	d="
M53.860390,55.413067 
	C53.126602,55.699463 52.128410,55.792561 51.058327,55.560051 
	C51.856289,55.229549 52.726139,55.224659 53.860390,55.413067 
z"/>
<path fill="#EDEDED" opacity="1.000000" stroke="none" 
	d="
M36.231117,45.167847 
	C36.984928,44.950108 37.945957,44.982964 38.967621,45.308582 
	C38.164948,45.540379 37.301643,45.479408 36.231117,45.167847 
z"/>
<path fill="#DDDDDD" opacity="1.000000" stroke="none" 
	d="
M39.131683,97.264893 
	C39.761181,97.665154 40.434700,98.365204 41.102722,99.395538 
	C40.456726,99.005455 39.816219,98.285072 39.131683,97.264893 
z"/>
<path fill="#EDEDED" opacity="1.000000" stroke="none" 
	d="
M35.705460,36.116371 
	C35.585918,36.965897 35.171974,37.933311 34.421013,38.964779 
	C34.526356,38.097309 34.968704,37.165783 35.705460,36.116371 
z"/>
<path fill="#F1F0EF" opacity="1.000000" stroke="none" 
	d="
M63.213860,55.270817 
	C63.335514,54.995926 63.719692,55.018513 63.910057,55.053463 
	C63.508450,55.867027 62.916481,56.645641 62.146858,57.171669 
	C62.343540,56.461292 62.717873,56.003502 63.213860,55.270817 
z"/>
<path fill="#F1F0EF" opacity="1.000000" stroke="none" 
	d="
M73.317856,49.986450 
	C73.157333,49.180592 73.274254,48.261650 73.625458,46.939724 
	C73.771584,47.648949 73.683441,48.761158 73.317856,49.986450 
z"/>
<path fill="#DDDDDD" opacity="1.000000" stroke="none" 
	d="
M35.189766,91.287643 
	C35.719822,91.648598 36.234158,92.329765 36.632740,93.360275 
	C36.069340,93.009033 35.621693,92.308441 35.189766,91.287643 
z"/>
<path fill="#DDDDDD" opacity="1.000000" stroke="none" 
	d="
M46.711586,105.501724 
	C47.375168,105.550377 48.146709,105.903145 48.969643,106.602676 
	C48.287205,106.568245 47.553379,106.187050 46.711586,105.501724 
z"/>
<path fill="#F1F0EF" opacity="1.000000" stroke="none" 
	d="
M73.211304,46.064438 
	C72.721054,46.301907 72.071304,46.372417 71.193436,46.174248 
	C71.660812,45.902870 72.356316,45.900173 73.211304,46.064438 
z"/>
<path fill="#EDEDED" opacity="1.000000" stroke="none" 
	d="
M32.658607,42.045532 
	C32.982731,42.455109 32.984638,42.958221 32.978821,43.839378 
	C32.759529,43.524639 32.547958,42.831852 32.658607,42.045532 
z"/>
<path fill="#F1F0EF" opacity="1.000000" stroke="none" 
	d="
M60.131210,56.664101 
	C59.915867,56.953861 59.606724,56.877651 59.176552,56.475071 
	C59.349030,56.335503 59.676323,56.385311 60.131210,56.664101 
z"/>
<path fill="#F1F0EF" opacity="1.000000" stroke="none" 
	d="
M81.857880,53.791061 
	C81.631477,53.953465 81.417526,53.819500 81.135201,53.468006 
	C81.388680,53.093105 81.656517,53.174515 81.857880,53.791061 
z"/>
<path fill="#F1F0EF" opacity="1.000000" stroke="none" 
	d="
M65.748306,45.225388 
	C65.940529,45.568466 65.805130,45.761108 65.407776,45.941933 
	C65.325249,45.706787 65.416870,45.421730 65.748306,45.225388 
z"/>
<path fill="#101010" opacity="1.000000" stroke="none" 
	d="
M53.980179,68.938438 
	C56.026485,69.277565 58.072788,69.616699 60.484379,70.016357 
	C59.897408,73.894562 59.376049,77.339264 58.854691,80.783966 
	C58.534431,80.869873 58.214172,80.955788 57.893913,81.041702 
	C56.553951,77.620766 55.213989,74.199829 53.882202,70.136551 
	C53.920315,69.308952 53.950245,69.123695 53.980179,68.938438 
z"/>
<path fill="#F1F0EF" opacity="1.000000" stroke="none" 
	d="
M73.319092,60.766144 
	C72.625412,60.966690 72.166534,60.977928 71.365273,61.013309 
	C71.445282,60.059467 71.867676,59.081482 72.632889,58.038475 
	C73.168442,58.841248 73.361176,59.709042 73.319092,60.766144 
z"/>
<path fill="#EBEAEB" opacity="1.000000" stroke="none" 
	d="
M53.837280,68.716019 
	C53.950245,69.123695 53.920315,69.308952 53.795044,69.759048 
	C53.258106,69.692978 52.816505,69.362061 52.374901,69.031136 
	C52.814728,68.851959 53.254551,68.672783 53.837280,68.716019 
z"/>
<path fill="#F4F2F3" opacity="1.000000" stroke="none" 
	d="
M21.465958,59.450150 
	C21.521883,59.416885 21.410034,59.483414 21.465958,59.450150 
z"/>
<path fill="#DDDDDD" opacity="1.000000" stroke="none" 
	d="
M39.463520,93.446220 
	C39.517136,93.414093 39.409904,93.478348 39.463520,93.446220 
z"/>
<path fill="#F4F2F3" opacity="1.000000" stroke="none" 
	d="
M19.548630,58.470127 
	C19.579632,58.522671 19.517630,58.417583 19.548630,58.470127 
z"/>
<path fill="#F0EFEF" opacity="1.000000" stroke="none" 
	d="
M79.469009,31.454861 
	C79.520950,31.424700 79.417068,31.485022 79.469009,31.454861 
z"/>
<path fill="#030303" opacity="1.000000" stroke="none" 
	d="
M20.899071,149.114914 
	C18.021353,146.210388 16.587275,142.865280 18.804651,139.651199 
	C20.084036,137.796707 22.784208,136.524765 25.094088,135.870911 
	C28.673864,134.857559 31.424124,137.077942 32.483055,140.183365 
	C33.177425,142.219681 32.926464,145.202103 31.872370,147.067856 
	C30.200871,150.026413 27.122068,151.394638 23.506521,150.257248 
	C22.730961,150.013275 22.011765,149.590118 20.899071,149.114914 
z"/>
</svg>